<?xml version="1.0" encoding="UTF-8"?> <svg xmlns="http://www.w3.org/2000/svg" id="Layer_1" data-name="Layer 1" viewBox="0 0 167.25 50" width="200px" height="60px"><defs><style>.cls-1{fill:#ff7010;}</style></defs><title>Dhaval Zaveri</title><path class="cls-1" d="M65.35,16H60a1.82,1.82,0,0,0-.66.11.43.43,0,0,0-.28.44c.26.42.52.84.77,1.27a6.22,6.22,0,0,1,.34,2.47V29a13.41,13.41,0,0,1-.64,4.15,9,9,0,0,1-2,3.44c0,.06-.06.19-.13.39a.34.34,0,0,0,.11.25.52.52,0,0,0,.24.08,1.1,1.1,0,0,0,.4-.1,1.64,1.64,0,0,1,.32-.09,16.29,16.29,0,0,0,4.37-3.36A7.14,7.14,0,0,0,65,29V20.27c0-1.58.26-2.61.8-3.11a.91.91,0,0,0,.35-.6A.59.59,0,0,0,66,16.1,1.05,1.05,0,0,0,65.35,16Z"></path><path class="cls-1" d="M83.92,16.09a9.26,9.26,0,0,0-1.6-.11l-1,0H80.4l-.33.19a.91.91,0,0,0-.2.66,2.33,2.33,0,0,1,.53,2.31l-1.27,3.08c-.5,1.15-.95,2.15-1.38,3,0,0-.16,0-.38-.11L75,19.28a1.36,1.36,0,0,1-.13-.61,2.39,2.39,0,0,1,.31-1,2.5,2.5,0,0,0,.32-1c0-.43,0-.66-.14-.72H69.23l-.64,0a2,2,0,0,0-.7.1.55.55,0,0,0-.35.36,1.16,1.16,0,0,0-.1.34l.16.83q1.19,1.92,2.4,3.85,1.32,2.18,2.17,3.93a9.8,9.8,0,0,1,.88,2.56,14.83,14.83,0,0,1,.28,2.86,15.18,15.18,0,0,1-.2,2.53,2.8,2.8,0,0,1-.57.69.91.91,0,0,0-.33.79c.12.3.3.44.52.44h6.41a.36.36,0,0,0,.35-.2.78.78,0,0,0,.11-.4.52.52,0,0,0-.08-.3,4.17,4.17,0,0,1-.75-1,2,2,0,0,1-.27-1,13.63,13.63,0,0,1-.08-1.41,16.43,16.43,0,0,1,2-7.34c1.27-2.2,2.54-4.4,3.83-6.6a1.11,1.11,0,0,0,0-.28A.67.67,0,0,0,83.92,16.09Z"></path><path class="cls-1" d="M101.58,17.3C100.29,16.4,98,16,94.81,16s-5.39.48-6.71,1.43q-2.59,1.88-2.59,7a12.23,12.23,0,0,0,2.12,7,8.21,8.21,0,0,0,7.18,3.87,8,8,0,0,0,7-3.82,13.47,13.47,0,0,0,2.2-7.67C104,20.55,103.19,18.42,101.58,17.3Zm-4,12.38C97,32.19,96,33.44,94.75,33.44c-1.45,0-2.46-1.25-3-3.76a23.79,23.79,0,0,1-.5-5.29,11.27,11.27,0,0,1,.93-5,2.9,2.9,0,0,1,2.71-1.83c1.5,0,2.51,1,3,2.89a17.4,17.4,0,0,1,.36,4.15A21.36,21.36,0,0,1,97.59,29.68Z"></path><path class="cls-1" d="M120.09,16.2H107.3c-.66,0-1.2.51-1.63,1.54a6.27,6.27,0,0,0-.49,2.39,5.42,5.42,0,0,0,.09,1.14.47.47,0,0,0,.49.4c.31,0,.8-.53,1.47-1.61a3.07,3.07,0,0,1,2.71-1.61,1.39,1.39,0,0,1,.78.43,1.22,1.22,0,0,1,.48.92l0,11.22a4.55,4.55,0,0,1-.58,2.56,2.84,2.84,0,0,0-.58,1.21c0,.28.28.41.83.41h5.64a1.43,1.43,0,0,0,.55-.16c.24-.11.36-.26.36-.44-.32-.53-.61-1.07-.88-1.62a4.15,4.15,0,0,1-.42-1.9V19.8a1.9,1.9,0,0,1,.25-1,.81.81,0,0,1,.74-.4,3.25,3.25,0,0,1,2.45,1,14.11,14.11,0,0,1,1.73,2.23.43.43,0,0,0,.44-.34,2.57,2.57,0,0,0,.12-.84v-.36a7.05,7.05,0,0,0-.53-2.63C121,16.63,120.58,16.2,120.09,16.2Z"></path><path class="cls-1" d="M129.3,30.5l0-10.75a3.4,3.4,0,0,1,.56-2,2.48,2.48,0,0,0,.57-1,.61.61,0,0,0-.28-.54,1.27,1.27,0,0,0-.71-.18h-5.34a1.57,1.57,0,0,0-.87.15.56.56,0,0,0-.17.46l.74,1.4a3.85,3.85,0,0,1,.36,1.79v10.7a6.9,6.9,0,0,1-.36,2.49,10.85,10.85,0,0,1-.8,1.6c0,.17.12.32.36.46a1.19,1.19,0,0,0,.55.2h5.72a1.14,1.14,0,0,0,.54-.17.51.51,0,0,0,.31-.43,1.64,1.64,0,0,0-.38-.88A5.37,5.37,0,0,1,129.3,30.5Z"></path><path class="cls-1" d="M144,24.53c-1.68-1.23-3.36-2.46-5-3.71A2.29,2.29,0,0,1,138,19.2a1.23,1.23,0,0,1,.14-.57,2.23,2.23,0,0,1,.58-.62,3.8,3.8,0,0,1,1.76-.41,4.62,4.62,0,0,1,1.47.22,3.6,3.6,0,0,1,1.22.69,4.38,4.38,0,0,1,.91,1,1.08,1.08,0,0,0,1.05.52.75.75,0,0,0,.41-.63,2,2,0,0,1,0-.3,7.42,7.42,0,0,0-.25-1.54c-.06-.22-.12-.49-.19-.82a1.23,1.23,0,0,0-.29-.63.73.73,0,0,0-.48-.15,3.58,3.58,0,0,0-.62.1c-.32.06-.59.11-.8.13a10.29,10.29,0,0,1-1.23.05c-.34,0-1,0-2-.1S138,16,137.55,16a10.64,10.64,0,0,0-2.2.22,5.18,5.18,0,0,0-1.78.77A3.46,3.46,0,0,0,132,20a2.07,2.07,0,0,0,0,.41A4.73,4.73,0,0,0,133.37,23a10.44,10.44,0,0,0,2.37,1.9c1.08.72,2.16,1.42,3.24,2.12a5.23,5.23,0,0,1,2.26,3,2.93,2.93,0,0,1,0,.49,3.31,3.31,0,0,1-.32,1.42A2.63,2.63,0,0,1,140,33a2.14,2.14,0,0,1-.62.34,1.87,1.87,0,0,1-.64.1,2.88,2.88,0,0,1-.61-.09c-.26,0-.48-.11-.66-.16a2,2,0,0,1-1.46-2,5.9,5.9,0,0,0,.17-.66,1.6,1.6,0,0,1,.38-.83,2.24,2.24,0,0,1,.8-.47q.66-.27.66-.66a2,2,0,0,0-.84-.56,3.31,3.31,0,0,0-1.11-.18,5.9,5.9,0,0,0-1,.07,6.62,6.62,0,0,0-1,.23,3.79,3.79,0,0,0-1.45,1.12,2.47,2.47,0,0,0-.62,1.58,4.21,4.21,0,0,0-.05.52,2.7,2.7,0,0,0,.47,1.56,4.24,4.24,0,0,0,1.23,1.19,12.89,12.89,0,0,0,5.48,1.1,15.24,15.24,0,0,0,4.54-.66,4,4,0,0,0,1.88-1.33,4.75,4.75,0,0,0,1-2.13c.06-.33.1-.57.11-.71a4.27,4.27,0,0,0,0-.59Q146.74,27.07,144,24.53Z"></path><path class="cls-1" d="M164.9,33.31a9.86,9.86,0,0,1-.31-3V20.52q0-2.6.69-3.36a.89.89,0,0,0,.28-.49q0-.72-1.41-.72h-4.59c-.73,0-1.1.23-1.1.69a3.17,3.17,0,0,0,.48.93,2.8,2.8,0,0,1,.48,1.46l.06,1.29q0,.36-.57.54a13.85,13.85,0,0,1-2.13.37,8.41,8.41,0,0,0-1.24.33,3.16,3.16,0,0,1-.85.19c-.24,0-.36-.15-.36-.46V19a2,2,0,0,1,.42-1.32,1.61,1.61,0,0,0,.41-.94c0-.29-.06-.48-.17-.56a.89.89,0,0,0-.52-.12h-5.58a.73.73,0,0,0-.5.13.55.55,0,0,0-.25.47c.28.59.56,1.16.86,1.73a26.59,26.59,0,0,1,.35,5.2V29a15.46,15.46,0,0,1-.35,3.86,4.07,4.07,0,0,1-.86,1.72.5.5,0,0,0,.36.5,3.16,3.16,0,0,0,1.05.13h4.84a1,1,0,0,0,.51-.15.46.46,0,0,0,.23-.4c-.22-.45-.43-.91-.63-1.37a6.52,6.52,0,0,1-.28-2.17v-3.8a4.11,4.11,0,0,1,1.9-3.3A5,5,0,0,1,159,22.8c.34,0,.52.1.52.3v8.75a3.13,3.13,0,0,1-.48,1.87,2,2,0,0,0-.48,1,.35.35,0,0,0,.23.35,2.32,2.32,0,0,0,.76.09h5.14l.55-.08a.41.41,0,0,0,.33-.41C165.37,34.25,165.13,33.78,164.9,33.31Z"></path><path class="cls-1" d="M10,11.19a9.79,9.79,0,0,0,.84,3c.3.55.55.8,1,.12a14.1,14.1,0,0,1,3.31-3.23c.59-.41.48-.73.08-1.19-1.8-2.12-4.13-2.68-7.12-2.42A5.32,5.32,0,0,1,10,11.19Z"></path><path class="cls-1" d="M23.37,7.76a15.56,15.56,0,0,1,4.72,0c.67.1.79-.21.87-.75A7.07,7.07,0,0,0,25.62.49c.22,1.58-.63,2.71-1.41,3.85A8.86,8.86,0,0,0,22.76,7C22.6,7.52,22.63,7.87,23.37,7.76Z"></path><path class="cls-1" d="M46.23,23.67a9.47,9.47,0,0,0-2.73-1.51c-.56-.16-.77-.06-.7.6a19.21,19.21,0,0,1-.06,4.85c-.06.46,0,.63.5.73A6.81,6.81,0,0,0,50,25.12,5.77,5.77,0,0,1,46.23,23.67Z"></path><path class="cls-1" d="M36.2,11.27a14.31,14.31,0,0,1,3.3,3.38c.39.56.68.41,1.1.07,2.18-1.79,2.74-4.14,2.44-7-1.24,1.38-2.78,1.57-4.29,1.83a7.41,7.41,0,0,0-2.46.76C35.76,10.58,35.6,10.83,36.2,11.27Z"></path><path class="cls-1" d="M8.26,27.17a16,16,0,0,1,0-4.73c.1-.66-.22-.78-.75-.86A7.07,7.07,0,0,0,1,24.92c1.58-.22,2.7.63,3.85,1.41a8.86,8.86,0,0,0,2.62,1.45C8,27.94,8.38,27.91,8.26,27.17Z"></path><path class="cls-1" d="M14.91,38.75a15.74,15.74,0,0,1-3.27-3.4c-.39-.55-.71-.42-1.14-.09a7,7,0,0,0-2.35,7c1-1.26,2.37-1.44,3.74-1.68a9.21,9.21,0,0,0,2.89-.79C15.28,39.47,15.51,39.2,14.91,38.75Z"></path><path class="cls-1" d="M27.77,42.27a15.56,15.56,0,0,1-4.72-.1c-.66-.1-.79.21-.87.75a7,7,0,0,0,3.26,6.59c-.21-1.59.65-2.7,1.45-3.83a9.15,9.15,0,0,0,1.49-2.61C28.54,42.52,28.51,42.16,27.77,42.27Z"></path><path class="cls-1" d="M39.28,35.61a15.51,15.51,0,0,1-3.4,3.27c-.55.39-.42.71-.09,1.14a7,7,0,0,0,7,2.36c-1.26-1-1.44-2.37-1.68-3.74a9.06,9.06,0,0,0-.79-2.89C40,35.25,39.73,35,39.28,35.61Z"></path><path class="cls-1" d="M30.75,22.42l-3.48-.26-2-2.89-2,2.89-3.48.26,1.52,3.14-1.52,3.15,3.48.26,2,2.88,2-2.88,3.48-.26-1.51-3.15ZM27.4,26.78l-1.34.1L25.31,28l-.76-1.11-1.34-.1.58-1.22-.58-1.21,1.34-.1.76-1.11.75,1.11,1.34.1-.58,1.21Z"></path><path class="cls-1" d="M25.52,10.35a14.72,14.72,0,0,0-4.28.63c0,.09,0,.19,0,.28A3.71,3.71,0,0,1,17.54,15a3.65,3.65,0,0,1-2.11-.66,14.84,14.84,0,0,0,2.24,23.48,2.08,2.08,0,0,1,4,.74,2.05,2.05,0,0,1-.23.95,15.06,15.06,0,0,0,4.05.56,14.85,14.85,0,1,0,0-29.69Zm-.21,25a9.8,9.8,0,1,1,9.8-9.8A9.8,9.8,0,0,1,25.31,35.36Z"></path></svg> 